<svg fill="none" height="16" viewBox="0 0 16 16" width="16" xmlns="http://www.w3.org/2000/svg"><path d="m13.3538 6.35375-5.00002 5.00005c-.04643.0464-.10158.0833-.16228.1085-.06069.0251-.12576.0381-.19147.0381-.0657 0-.13077-.013-.19147-.0381-.0607-.0252-.11584-.0621-.16228-.1085l-5-5.00005c-.09382-.09382-.14652-.22106-.14652-.35375 0-.13268.0527-.25993.14652-.35375s.22107-.14652.35375-.14652c.13269 0 .25993.0527.35375.14652l4.64625 4.64685 4.64627-4.64685c.0464-.04645.1016-.0833.1623-.10844s.1257-.03808.1914-.03808.1308.01294.1915.03808.1158.06199.1623.10844c.0464.04646.0833.10161.1084.16231.0252.06069.0381.12575.0381.19144 0 .0657-.0129.13076-.0381.19145-.0251.0607-.062.11585-.1084.1623z" fill="#000" fill-opacity=".8"/></svg>