<svg fill="none" height="24" viewBox="0 0 24 24" width="24" xmlns="http://www.w3.org/2000/svg"><path d="m19.5 3h-15c-.39782 0-.77936.15804-1.06066.43934s-.43934.66284-.43934 1.06066v15c0 .3978.15804.7794.43934 1.0607s.66284.4393 1.06066.4393h15c.3978 0 .7794-.158 1.0607-.4393s.4393-.6629.4393-1.0607v-15c0-.39782-.158-.77936-.4393-1.06066s-.6629-.43934-1.0607-.43934zm0 16.5h-15v-3.75h2.68969l1.81031 1.8113c.13895.1395.30421.2502.48622.3255.182.0753.37713.1138.57408.1132h3.8794c.197.0006.3923-.0379.5743-.1134s.3472-.1864.486-.3263l1.8103-1.8103h2.6897z" fill="#000" fill-opacity=".8"/></svg>